<svg xmlns="http://www.w3.org/2000/svg" viewBox="0 0 64 80" x="0px" y="0px"><title>message, Note, new, pen, ui, interface icon</title><g data-name="Layer 1"><path d="M4,58a2,2,0,0,0,2,2H55a2,2,0,0,0,2-2V26a2,2,0,0,0-4,0V56H8V11H38a2,2,0,0,0,0-4H6A2,2,0,0,0,4,9Z"/><path d="M54.05,4.15a2,2,0,0,0-2.83,0L23.61,31.76A2.05,2.05,0,0,0,23,33.17L23,39a2,2,0,0,0,2,2h0l5.85,0a1.94,1.94,0,0,0,1.4-.59L59.88,12.8a2,2,0,0,0,0-2.83ZM30,37l-3,0V34L52.63,8.39l3,3Z"/></g><text x="0" y="79" fill="#000000" font-size="5px" font-weight="bold" font-family="'Helvetica Neue', Helvetica, Arial-Unicode, Arial, Sans-serif">Created by Dika Darma</text><text x="0" y="84" fill="#000000" font-size="5px" font-weight="bold" font-family="'Helvetica Neue', Helvetica, Arial-Unicode, Arial, Sans-serif">from the Noun Project</text></svg>