<svg xmlns="http://www.w3.org/2000/svg" version="1.1" viewBox="-5.0 -10.0 110.0 135.0">
 <path d="m50 90c22.051 0 40-17.941 40-40s-17.949-40-40-40-40 17.941-40 40 17.941 40 40 40zm0-77c20.398 0 37 16.602 37 37s-16.602 37-37 37-37-16.602-37-37 16.59-37 37-37z"/>
 <path d="m40.891 66.398h18.219c2.4219 0 4.3906-1.9688 4.3906-4.3984v-5.6211c0-3.7305-2.2617-6.9492-5.4805-8.3398 0.91016-1.4492 1.4297-3.1602 1.4297-4.9883 0-5.2109-4.2383-9.4492-9.4492-9.4492s-9.4492 4.2383-9.4492 9.4492c0 1.8281 0.51953 3.5312 1.4297 4.9805-3.2305 1.3984-5.4883 4.6094-5.4883 8.3516v5.6211c0 2.4297 1.9688 4.3984 4.3984 4.3984zm9.1094-29.797c3.5508 0 6.4492 2.8906 6.4492 6.4492 0 1.6289-0.60938 3.1094-1.6016 4.2383-1.1797 1.3594-2.9219 2.2109-4.8516 2.2109-1.9297 0-3.6719-0.85156-4.8516-2.2109-1-1.1289-1.6016-2.6094-1.6016-4.2383 0-3.5586 2.8906-6.4492 6.4492-6.4492zm-10.512 19.777c0-2.8594 1.9805-5.2695 4.6484-5.9219 1.6094 1.2812 3.6484 2.0391 5.8594 2.0391 2.2109 0 4.25-0.76172 5.8594-2.0391 2.6719 0.64844 4.6406 3.0586 4.6406 5.9219v5.6211c0 0.76953-0.62109 1.3984-1.3906 1.3984h-18.219c-0.76953 0-1.3984-0.62891-1.3984-1.3984z"/>
 <path d="m77.371 68.93-8.8906-6.8789v11.238l3.6094-3.8789z"/>
<text x="0.0" y="117.5" font-size="5.0" font-weight="bold" font-family="Arbeit Regular, Helvetica, Arial-Unicode, Arial, Sans-serif" fill="#000000">Created by Kosong Tujuh</text><text x="0.0" y="122.5" font-size="5.0" font-weight="bold" font-family="Arbeit Regular, Helvetica, Arial-Unicode, Arial, Sans-serif" fill="#000000">from Noun Project</text></svg>